<svg width="24" height="24" viewBox="0 0 24 24" fill="none" xmlns="http://www.w3.org/2000/svg">
<g clip-path="url(#clip0_36_170)">
<path fill-rule="evenodd" clip-rule="evenodd" d="M23.25 11.625C23.248 9.59744 22.0808 7.75154 20.25 6.88031V6.75C20.2482 4.76581 18.9471 3.01696 17.0471 2.44502C15.1471 1.87309 13.0968 2.61307 12 4.26656C10.9032 2.61307 8.85286 1.87309 6.95289 2.44502C5.05292 3.01696 3.75178 4.76581 3.75 6.75V6.88031C1.91746 7.74923 0.749297 9.59595 0.749297 11.6241C0.749297 13.6522 1.91746 15.4989 3.75 16.3678V16.5C3.75178 18.4842 5.05292 20.233 6.95289 20.805C8.85286 21.3769 10.9032 20.6369 12 18.9834C13.0968 20.6369 15.1471 21.3769 17.0471 20.805C18.9471 20.233 20.2482 18.4842 20.25 16.5V16.3678C22.0805 15.4972 23.2477 13.652 23.25 11.625V11.625ZM8.25 19.5C6.71814 19.4998 5.43249 18.3455 5.26781 16.8225C5.51035 16.8571 5.75501 16.8746 6 16.875H6.75C7.16421 16.875 7.5 16.5392 7.5 16.125C7.5 15.7108 7.16421 15.375 6.75 15.375H6C4.17185 15.3771 2.60857 14.0607 2.29957 12.2588C1.99057 10.457 3.0259 8.69491 4.75031 8.08781C5.04977 7.98179 5.24995 7.69861 5.25 7.38094V6.75C5.25 5.09315 6.59315 3.75 8.25 3.75C9.90685 3.75 11.25 5.09315 11.25 6.75V13.1494C10.4264 12.4086 9.35768 11.9992 8.25 12C7.83579 12 7.5 12.3358 7.5 12.75C7.5 13.1642 7.83579 13.5 8.25 13.5C9.90685 13.5 11.25 14.8431 11.25 16.5C11.25 18.1569 9.90685 19.5 8.25 19.5V19.5ZM18 15.375H17.25C16.8358 15.375 16.5 15.7108 16.5 16.125C16.5 16.5392 16.8358 16.875 17.25 16.875H18C18.245 16.8746 18.4897 16.8571 18.7322 16.8225C18.5586 18.4281 17.145 19.6082 15.5342 19.4923C13.9234 19.3763 12.6934 18.006 12.7515 16.392C12.8096 14.7781 14.135 13.4998 15.75 13.5C16.1642 13.5 16.5 13.1642 16.5 12.75C16.5 12.3358 16.1642 12 15.75 12C14.6423 11.9992 13.5736 12.4086 12.75 13.1494V6.75C12.75 5.09315 14.0931 3.75 15.75 3.75C17.4069 3.75 18.75 5.09315 18.75 6.75V7.38094C18.7501 7.69861 18.9502 7.98179 19.2497 8.08781C20.9741 8.69491 22.0094 10.457 21.7004 12.2588C21.3914 14.0607 19.8282 15.3771 18 15.375V15.375ZM19.5 10.5C19.5 10.9142 19.1642 11.25 18.75 11.25H18.375C16.511 11.25 15 9.73896 15 7.875V7.5C15 7.08579 15.3358 6.75 15.75 6.75C16.1642 6.75 16.5 7.08579 16.5 7.5V7.875C16.5 8.91053 17.3395 9.75 18.375 9.75H18.75C19.1642 9.75 19.5 10.0858 19.5 10.5V10.5ZM5.625 11.25H5.25C4.83579 11.25 4.5 10.9142 4.5 10.5C4.5 10.0858 4.83579 9.75 5.25 9.75H5.625C6.66053 9.75 7.5 8.91053 7.5 7.875V7.5C7.5 7.08579 7.83579 6.75 8.25 6.75C8.66421 6.75 9 7.08579 9 7.5V7.875C9 9.73896 7.48896 11.25 5.625 11.25V11.25Z" fill="#121217"/>
</g>
<defs>
<clipPath id="clip0_36_170">
<rect width="24" height="24" fill="white"/>
</clipPath>
</defs>
</svg>
